<mxfile host="app.diagrams.net" modified="2024-06-26T01:51:03.424Z" agent="Mozilla/5.0 (Macintosh; Intel Mac OS X 10_15_7) AppleWebKit/537.36 (KHTML, like Gecko) Chrome/126.0.0.0 Safari/537.36" version="21.7.4" etag="EMWvsTpCZMuaS1K0T3YJ" type="github">
  <diagram name="第 1 页" id="LigVxYGsZ0fiL0T5B9S5">
    <mxGraphModel>
      <root>
        <mxCell id="0" />
        <mxCell id="1" parent="0" />
      </root>
    </mxGraphModel>
  </diagram>
</mxfile>
